<svg xmlns="http://www.w3.org/2000/svg" aria-hidden="true" style="position:absolute;width:0;height:0;overflow:hidden"><defs><symbol id="icon-arrow-long-leftsvg" viewBox="0 0 32 32"><path d="M13.706 10.293a1.003 1.003 0 0 1 0 1.414L10.413 15H32a.997.997 0 0 1 1 1 1 1 0 0 1-1 1H10.413l3.293 3.293a1.002 1.002 0 0 1 .025 1.439.992.992 0 0 1-.725.293 1.001 1.001 0 0 1-.714-.318l-5-5a1.002 1.002 0 0 1 0-1.414l5-5a1.002 1.002 0 0 1 1.414 0z"/></symbol><symbol id="icon-arrow-right-on-rectanglesvg" viewBox="0 0 32 32"><path stroke-linecap="round" stroke-linejoin="round" stroke-width="1.333" d="M21 12V7a3.004 3.004 0 0 0-3-3h-8a3.004 3.004 0 0 0-3 3v18a3.004 3.004 0 0 0 3 3h8a3.004 3.004 0 0 0 3-3v-5m4 0 4-4m0 0-4-4m4 4H12"/></symbol><symbol id="icon-arrow-up-tray" viewBox="0 0 32 32"><path stroke-linecap="round" stroke-linejoin="round" stroke-width="1.333" d="M4 22v3a3.004 3.004 0 0 0 3 3h18a3.004 3.004 0 0 0 3-3v-3M10 10l6-6m0 0 6 6m-6-6v18"/></symbol><symbol id="icon-calendar-days" viewBox="0 0 32 32"><path fill="none" stroke="#407bff" stroke-linecap="round" stroke-linejoin="round" stroke-width="1.6" d="M9 4v3m14-3v3M4 25V10a3.004 3.004 0 0 1 3-3h18a3.004 3.004 0 0 1 3 3v15M4 25a3.004 3.004 0 0 0 3 3h18a3.004 3.004 0 0 0 3-3M4 25V15a3.004 3.004 0 0 1 3-3h18a3.004 3.004 0 0 1 3 3v10m-12-8h.011v.011H16V17zm0 3h.011v.011H16V20zm0 3h.011v.011H16V23zm-3-3h.011v.011H13V20zm0 3h.011v.011H13V23zm-3-3h.011v.011H10V20zm0 3h.011v.011H10V23zm9-6h.011v.011H19V17zm0 3h.011v.011H19V20zm0 3h.011v.011H19V23zm3-6h.011v.011H22V17zm0 3h.011v.011H22V20z" style="stroke:var(--color1, #407bff)"/></symbol><symbol id="icon-chevron-double-up" viewBox="0 0 32 32"><path d="M16.706 21.707a1.002 1.002 0 0 1-1.414 0l-10-10a.996.996 0 0 1 .025-1.388 1.002 1.002 0 0 1 1.388-.025l9.293 9.293 9.293-9.293a1.013 1.013 0 0 1 .714-.318.993.993 0 0 1 .725.293.992.992 0 0 1 .293.725 1.001 1.001 0 0 1-.318.714l-10 10z"/></symbol><symbol id="icon-cog-6-tooth" viewBox="0 0 32 32"><path stroke-linecap="round" stroke-linejoin="round" stroke-width="1.333" d="M12.792 5.253A1.5 1.5 0 0 1 14.272 4h3.457c.733 0 1.36.531 1.48 1.253l.284 1.708c.084.499.417.915.86 1.16.099.053.196.111.293.169.432.261.96.343 1.433.165l1.623-.608a1.498 1.498 0 0 1 1.826.654l1.728 2.996c.177.308.24.668.177 1.018s-.249.665-.523.89l-1.337 1.103c-.391.32-.584.817-.575 1.323.002.113.002.227 0 .34-.009.504.184 1 .573 1.32l1.34 1.104c.565.467.712 1.272.347 1.907l-1.731 2.996a1.499 1.499 0 0 1-1.826.655l-1.623-.608c-.473-.177-1-.096-1.435.165a8.597 8.597 0 0 1-.293.171c-.441.244-.775.66-.859 1.159l-.284 1.707a1.5 1.5 0 0 1-1.48 1.255h-3.459c-.733 0-1.36-.531-1.48-1.253l-.284-1.708c-.083-.499-.416-.915-.859-1.16a9.308 9.308 0 0 1-.293-.169c-.433-.261-.96-.343-1.435-.165l-1.623.608a1.5 1.5 0 0 1-1.825-.653L4.74 20.506a1.5 1.5 0 0 1 .347-1.908l1.339-1.103c.389-.32.583-.817.573-1.323a9.634 9.634 0 0 1 0-.34c.009-.504-.184-1-.573-1.32l-1.339-1.104a1.502 1.502 0 0 1-.347-1.907l1.729-2.996a1.497 1.497 0 0 1 1.826-.654l1.621.608c.475.177 1.001.096 1.435-.165.096-.059.195-.116.293-.171.443-.244.776-.66.859-1.159l.285-1.708z"/><path stroke-linecap="round" stroke-linejoin="round" stroke-width="1.333" d="M20 16a4.003 4.003 0 0 1-4 4 4.003 4.003 0 0 1-4-4 4.003 4.003 0 0 1 4-4 4.003 4.003 0 0 1 4 4z"/></symbol><symbol id="icon-eye" viewBox="0 0 32 32"><path stroke-linecap="round" stroke-linejoin="round" stroke-width="1.333" d="M2.715 16.429a1.35 1.35 0 0 1 0-.852C4.564 10.013 9.814 6 16 6c6.184 0 11.431 4.009 13.284 9.571.093.276.093.575 0 .852C27.436 21.987 22.187 26 16 26c-6.184 0-11.432-4.009-13.285-9.571z"/><path stroke-linecap="round" stroke-linejoin="round" stroke-width="1.333" d="M20 16a4.003 4.003 0 0 1-4 4 4.003 4.003 0 0 1-4-4 4.003 4.003 0 0 1 4-4 4.003 4.003 0 0 1 4 4z"/></symbol><symbol id="icon-eye-slash" viewBox="0 0 32 32"><path stroke-linecap="round" stroke-linejoin="round" stroke-width="1.333" d="M5.307 10.964A13.978 13.978 0 0 0 2.579 16C4.302 21.784 9.659 26 16 26c1.324 0 2.604-.184 3.817-.527M8.304 8.304A13.936 13.936 0 0 1 16 6c6.341 0 11.697 4.216 13.42 9.997a14.033 14.033 0 0 1-5.724 7.699M8.304 8.304 4 4m4.304 4.304 4.867 4.867m10.525 10.525L28 28m-4.304-4.304-4.867-4.867A3.996 3.996 0 0 0 20 16a4.001 4.001 0 0 0-4-4 4.017 4.017 0 0 0-2.829 1.172m5.657 5.656-5.655-5.655"/></symbol><symbol id="icon-minus-small" viewBox="0 0 32 32"><path d="M7 16a.997.997 0 0 1 1-1h16a.997.997 0 0 1 1 1 .997.997 0 0 1-1 1H8a.997.997 0 0 1-1-1z"/></symbol><symbol id="icon-pencil-square" viewBox="0 0 32 32"><path stroke-linecap="round" stroke-linejoin="round" stroke-width="1.333" d="m22.483 5.983 2.249-2.251a2.5 2.5 0 0 1 3.536 3.536L14.109 21.427a6.002 6.002 0 0 1-2.529 1.507L8 24.001l1.067-3.58a5.992 5.992 0 0 1 1.507-2.529L22.483 5.984zm0 0L26 9.5m-2 9.167V25a3.004 3.004 0 0 1-3 3H7a3.004 3.004 0 0 1-3-3V11a3.004 3.004 0 0 1 3-3h6.333"/></symbol><symbol id="icon-plus-circle" viewBox="0 0 32 32"><path stroke-linecap="round" stroke-linejoin="round" stroke-width="1.333" d="M16 12v8m4-4h-8m16 0a12 12 0 1 1-24.003.002A12 12 0 0 1 28.002 16z"/></symbol><symbol id="icon-plus-small" viewBox="0 0 32 32"><path stroke-linecap="round" stroke-linejoin="round" stroke-width="1.333" d="M16 8v16m8-8H8"/></symbol><symbol id="icon-presentation-chart-bar" viewBox="0 0 32 32"><path fill="none" stroke="#407bff" stroke-linecap="round" stroke-linejoin="round" stroke-width="1.6" d="M5 4v15a3.004 3.004 0 0 0 3 3h3M5 4H3m2 0h22M11 22h10m-10 0-1.333 4M27 4h2m-2 0v15a3.004 3.004 0 0 1-3 3h-3m0 0 1.333 4M9.667 26h12.667M9.667 26 9 28m13.333-2L23 28M12 15v2m4-5v5m4-8v8" style="stroke:var(--color1, #407bff)"/></symbol><symbol id="icon-trash" viewBox="0 0 32 32"><path stroke-linecap="round" stroke-linejoin="round" stroke-width="1.333" d="m19.653 12-.461 12m-6.384 0-.461-12m13.29-4.28c.456.069.909.143 1.363.221m-1.363-.221-1.424 18.511A3 3 0 0 1 21.221 29H10.778a2.996 2.996 0 0 1-2.992-2.769L6.362 7.72m19.275 0A63.917 63.917 0 0 0 21 7.191M6.363 7.72c-.456.068-.909.141-1.363.22m1.363-.22A63.917 63.917 0 0 1 11 7.191m10 0V5.97c0-1.573-1.213-2.885-2.787-2.935a69.515 69.515 0 0 0-4.427 0c-1.573.049-2.787 1.363-2.787 2.935v1.221m10.001 0a64.947 64.947 0 0 0-10 0"/></symbol><symbol id="icon-user" viewBox="0 0 32 32"><path stroke-width="1.333" d="M31.333 16c0 8.468-6.865 15.333-15.333 15.333S.667 24.468.667 16 7.532.667 16 .667 31.333 7.532 31.333 16z"/><path stroke-linecap="round" stroke-linejoin="round" stroke-width="1.333" d="M20.001 9.436c0 1.088-.421 2.132-1.172 2.901S17.061 13.539 16 13.539c-1.061 0-2.079-.432-2.829-1.202s-1.172-1.813-1.172-2.901c0-1.088.421-2.132 1.172-2.901S14.939 5.333 16 5.333c1.061 0 2.079.432 2.829 1.202s1.172 1.813 1.172 2.901zM8 24.881c.034-2.153.892-4.205 2.389-5.715S13.901 16.81 16 16.81c2.099 0 4.115.846 5.611 2.356s2.355 3.562 2.389 5.715a18.732 18.732 0 0 1-8 1.785c-2.855 0-5.564-.639-8-1.785z"/></symbol><symbol id="icon-wrench-screwdriver" viewBox="0 0 32 32"><path fill="none" stroke="#407bff" stroke-linecap="round" stroke-linejoin="round" stroke-width="1.6" d="M15.227 20.227 23 28a3.535 3.535 0 0 0 5.996-2.513 3.535 3.535 0 0 0-.995-2.488l-7.836-7.836m-4.938 5.064 3.328-4.04c.423-.512.987-.835 1.611-1.021.733-.219 1.551-.251 2.324-.187a6.006 6.006 0 0 0 6.486-5.404 6.013 6.013 0 0 0-.504-3.045l-4.368 4.369a4.01 4.01 0 0 1-3-3l4.368-4.368a6.008 6.008 0 0 0-7.912 2.943 6.01 6.01 0 0 0-.536 3.039c.121 1.435-.095 3.019-1.205 3.933l-.136.113m-.456 6.668L9.02 27.764a3.403 3.403 0 0 1-2.46 1.239A3.4 3.4 0 0 1 3 25.442a3.39 3.39 0 0 1 1.239-2.46l9.116-7.507-5.476-5.476H6l-3-5 2-2 5 3v1.879l5.68 5.68-2.327 1.916M24.5 24.5 21 21M6.489 25.5H6.5v.011h-.011V25.5z" style="stroke:var(--color1, #407bff)"/></symbol><symbol id="icon-glass" viewBox="0 0 32 32"><path fill="#407bff" d="m5.565 2.783 1.901 26.363v.072h16.367l1.901-26.353v-.082H5.565zm17.596 25.696H8.144L6.718 8.732h.784l1.289 17.403c.008.092.049.177.115.24s.153.098.244.099h.03a.363.363 0 0 0 .247-.124.375.375 0 0 0 .086-.265L8.224 8.734h16.362L23.16 28.481zm1.476-20.485H8.169l-.283-3.847c-.009-.094-.052-.181-.122-.244s-.16-.097-.252-.095c-.095.009-.183.055-.245.129s-.094.169-.088.266l.283 3.795h-.794l-.324-4.483h18.617l-.324 4.478z" style="fill:var(--color1, #407bff)"/><path fill="#407bff" d="M11.36 12.384c.236 0 .467-.071.663-.204s.349-.322.439-.543a1.229 1.229 0 0 0-.259-1.319 1.187 1.187 0 0 0-1.3-.262c-.218.092-.404.247-.535.446a1.223 1.223 0 0 0 .148 1.528c.223.227.527.355.844.355zm0-1.687a.467.467 0 0 1 .434.294.482.482 0 0 1-.102.52.469.469 0 0 1-.803-.338c0-.127.05-.248.138-.337s.208-.14.333-.14zM11.354 16.318c.003.239.076.472.209.669s.321.35.539.439a1.178 1.178 0 0 0 1.296-.274 1.216 1.216 0 0 0 .248-1.319 1.205 1.205 0 0 0-.442-.54 1.18 1.18 0 0 0-1.509.162 1.209 1.209 0 0 0-.342.864zm1.659 0c0 .094-.028.186-.079.265a.464.464 0 0 1-.724.072.48.48 0 0 1 .332-.814.478.478 0 0 1 .471.477zM19.834 16.349c.236 0 .467-.071.663-.204s.349-.322.439-.543a1.229 1.229 0 0 0-.259-1.319 1.187 1.187 0 0 0-1.3-.262c-.218.092-.404.247-.535.446a1.223 1.223 0 0 0 .148 1.528c.223.227.527.355.844.355zm0-1.683a.466.466 0 0 1 .435.296.492.492 0 0 1 .026.276.473.473 0 0 1-.372.373.461.461 0 0 1-.482-.207.482.482 0 0 1 .062-.6.469.469 0 0 1 .331-.138zM15.678 14.066c.236 0 .467-.071.663-.204s.349-.322.439-.543A1.229 1.229 0 0 0 16.521 12a1.183 1.183 0 0 0-1.835.184 1.223 1.223 0 0 0 .149 1.528c.224.227.527.355.844.355zm0-1.687a.467.467 0 0 1 .434.294.482.482 0 0 1-.102.52.465.465 0 0 1-.724-.073.481.481 0 0 1-.079-.265.488.488 0 0 1 .128-.354.461.461 0 0 1 .342-.149v.026zM13.402 20.929c.005.197.067.387.178.548s.267.285.448.357a.974.974 0 0 0 1.065-.232 1.005 1.005 0 0 0 .203-1.086 1.001 1.001 0 0 0-.363-.445.975.975 0 0 0-.545-.167c-.264.007-.514.118-.699.309s-.287.449-.287.716zm.986-.267a.262.262 0 0 1 .243.165.27.27 0 0 1-.057.291.264.264 0 0 1-.287.058.262.262 0 0 1-.162-.246c0-.071.028-.139.077-.189s.116-.078.186-.078zM18.17 19.816a1.008 1.008 0 0 0 .962-.614 1.042 1.042 0 0 0-.208-1.133c-.142-.146-.325-.245-.524-.285s-.405-.018-.591.063c-.186.08-.345.216-.454.389a1.042 1.042 0 0 0 .131 1.277c.181.186.426.294.684.304zm0-1.267c.07 0 .137.028.186.078a.27.27 0 0 1 0 .378c-.049.05-.116.078-.186.078s-.138-.028-.188-.078-.079-.118-.08-.189a.282.282 0 0 1 .079-.19.263.263 0 0 1 .189-.076zM20.253 11.538a1.017 1.017 0 0 0 .934-.633 1.037 1.037 0 0 0-.219-1.118.999.999 0 0 0-1.556.155 1.038 1.038 0 0 0 .126 1.295c.189.192.447.3.715.3zm0-1.267c.039-.011.08-.013.12-.006s.078.024.11.049a.27.27 0 0 1 .077.332.282.282 0 0 1-.077.094.254.254 0 0 1-.23.043c-.039.011-.08.013-.12.006s-.078-.024-.11-.049a.27.27 0 0 1-.077-.332.282.282 0 0 1 .077-.094.254.254 0 0 1 .23-.043zM10.369 27.191a.372.372 0 0 0-.193.219.396.396 0 0 0-.017.149.387.387 0 0 0 .178.289.371.371 0 0 0 .351.019 10.9 10.9 0 0 1 4.99-1.231c1.837.027 3.648.441 5.319 1.216a.357.357 0 0 0 .413-.054.369.369 0 0 0 .092-.413.378.378 0 0 0-.192-.205 13.78 13.78 0 0 0-5.633-1.282 11.6 11.6 0 0 0-5.309 1.293z" style="fill:var(--color1, #407bff)"/></symbol></defs><symbol id="outline" width="28" height="28" viewBox="0 0 28 28" fill="none">
<g clip-path="url(#clip0_139_573)">
<circle cx="14" cy="14" r="13.5" stroke="#2F2F2F"/>
<path d="M17.5005 8.2564C17.5005 9.20846 17.1317 10.1215 16.4752 10.7947C15.8187 11.4679 14.9284 11.8461 14 11.8461C13.0716 11.8461 12.1813 11.4679 11.5248 10.7947C10.8683 10.1215 10.4995 9.20846 10.4995 8.2564C10.4995 7.30434 10.8683 6.39127 11.5248 5.71807C12.1813 5.04486 13.0716 4.66666 14 4.66666C14.9284 4.66666 15.8187 5.04486 16.4752 5.71807C17.1317 6.39127 17.5005 7.30434 17.5005 8.2564ZM7 21.7711C7.03 19.8875 7.78069 18.0915 9.09018 16.7703C10.3997 15.4492 12.163 14.7088 14 14.7088C15.837 14.7088 17.6003 15.4492 18.9098 16.7703C20.2193 18.0915 20.97 19.8875 21 21.7711C18.8039 22.8037 16.4159 23.3367 14 23.3333C11.5021 23.3333 9.13108 22.7743 7 21.7711Z" stroke="#2F2F2F" stroke-linecap="round" stroke-linejoin="round"/>
</g>
<defs>
<clipPath>
<rect width="28" height="28" fill="white"/>
</clipPath>
</defs>
</symbol></svg>
