<svg xmlns="http://www.w3.org/2000/svg" aria-hidden="true" style="position:absolute;width:0;height:0;overflow:hidden"><defs><symbol id="icon-arrow-long-leftsvg" viewBox="0 0 32 32"><path d="M13.706 10.293a1.003 1.003 0 0 1 0 1.414L10.413 15H32a.997.997 0 0 1 1 1 1 1 0 0 1-1 1H10.413l3.293 3.293a1.002 1.002 0 0 1 .025 1.439.992.992 0 0 1-.725.293 1.001 1.001 0 0 1-.714-.318l-5-5a1.002 1.002 0 0 1 0-1.414l5-5a1.002 1.002 0 0 1 1.414 0z"/></symbol><symbol id="icon-arrow-right-on-rectanglesvg" viewBox="0 0 32 32"><path stroke-linecap="round" stroke-linejoin="round" stroke-width="1.333" d="M21 12V7a3.004 3.004 0 0 0-3-3h-8a3.004 3.004 0 0 0-3 3v18a3.004 3.004 0 0 0 3 3h8a3.004 3.004 0 0 0 3-3v-5m4 0 4-4m0 0-4-4m4 4H12"/></symbol><symbol id="icon-arrow-up-tray" viewBox="0 0 32 32"><path stroke-linecap="round" stroke-linejoin="round" stroke-width="1.333" d="M4 22v3a3.004 3.004 0 0 0 3 3h18a3.004 3.004 0 0 0 3-3v-3M10 10l6-6m0 0 6 6m-6-6v18"/></symbol><symbol id="icon-calendar-days" viewBox="0 0 32 32"><path fill="none" stroke="#407bff" stroke-linecap="round" stroke-linejoin="round" stroke-width="1.6" d="M9 4v3m14-3v3M4 25V10a3.004 3.004 0 0 1 3-3h18a3.004 3.004 0 0 1 3 3v15M4 25a3.004 3.004 0 0 0 3 3h18a3.004 3.004 0 0 0 3-3M4 25V15a3.004 3.004 0 0 1 3-3h18a3.004 3.004 0 0 1 3 3v10m-12-8h.011v.011H16V17zm0 3h.011v.011H16V20zm0 3h.011v.011H16V23zm-3-3h.011v.011H13V20zm0 3h.011v.011H13V23zm-3-3h.011v.011H10V20zm0 3h.011v.011H10V23zm9-6h.011v.011H19V17zm0 3h.011v.011H19V20zm0 3h.011v.011H19V23zm3-6h.011v.011H22V17zm0 3h.011v.011H22V20z" style="stroke:var(--color1, #407bff)"/></symbol><symbol id="icon-chevron-double-up" viewBox="0 0 32 32"><path d="M16.706 21.707a1.002 1.002 0 0 1-1.414 0l-10-10a.996.996 0 0 1 .025-1.388 1.002 1.002 0 0 1 1.388-.025l9.293 9.293 9.293-9.293a1.013 1.013 0 0 1 .714-.318.993.993 0 0 1 .725.293.992.992 0 0 1 .293.725 1.001 1.001 0 0 1-.318.714l-10 10z"/></symbol><symbol id="icon-cog-6-tooth" viewBox="0 0 32 32"><path stroke-linecap="round" stroke-linejoin="round" stroke-width="1.333" d="M12.792 5.253A1.5 1.5 0 0 1 14.272 4h3.457c.733 0 1.36.531 1.48 1.253l.284 1.708c.084.499.417.915.86 1.16.099.053.196.111.293.169.432.261.96.343 1.433.165l1.623-.608a1.498 1.498 0 0 1 1.826.654l1.728 2.996c.177.308.24.668.177 1.018s-.249.665-.523.89l-1.337 1.103c-.391.32-.584.817-.575 1.323.002.113.002.227 0 .34-.009.504.184 1 .573 1.32l1.34 1.104c.565.467.712 1.272.347 1.907l-1.731 2.996a1.499 1.499 0 0 1-1.826.655l-1.623-.608c-.473-.177-1-.096-1.435.165a8.597 8.597 0 0 1-.293.171c-.441.244-.775.66-.859 1.159l-.284 1.707a1.5 1.5 0 0 1-1.48 1.255h-3.459c-.733 0-1.36-.531-1.48-1.253l-.284-1.708c-.083-.499-.416-.915-.859-1.16a9.308 9.308 0 0 1-.293-.169c-.433-.261-.96-.343-1.435-.165l-1.623.608a1.5 1.5 0 0 1-1.825-.653L4.74 20.506a1.5 1.5 0 0 1 .347-1.908l1.339-1.103c.389-.32.583-.817.573-1.323a9.634 9.634 0 0 1 0-.34c.009-.504-.184-1-.573-1.32l-1.339-1.104a1.502 1.502 0 0 1-.347-1.907l1.729-2.996a1.497 1.497 0 0 1 1.826-.654l1.621.608c.475.177 1.001.096 1.435-.165.096-.059.195-.116.293-.171.443-.244.776-.66.859-1.159l.285-1.708z"/><path stroke-linecap="round" stroke-linejoin="round" stroke-width="1.333" d="M20 16a4.003 4.003 0 0 1-4 4 4.003 4.003 0 0 1-4-4 4.003 4.003 0 0 1 4-4 4.003 4.003 0 0 1 4 4z"/></symbol><symbol id="icon-eye" viewBox="0 0 32 32"><path stroke-linecap="round" stroke-linejoin="round" stroke-width="1.333" d="M2.715 16.429a1.35 1.35 0 0 1 0-.852C4.564 10.013 9.814 6 16 6c6.184 0 11.431 4.009 13.284 9.571.093.276.093.575 0 .852C27.436 21.987 22.187 26 16 26c-6.184 0-11.432-4.009-13.285-9.571z"/><path stroke-linecap="round" stroke-linejoin="round" stroke-width="1.333" d="M20 16a4.003 4.003 0 0 1-4 4 4.003 4.003 0 0 1-4-4 4.003 4.003 0 0 1 4-4 4.003 4.003 0 0 1 4 4z"/></symbol><symbol id="icon-eye-slash" viewBox="0 0 32 32"><path stroke-linecap="round" stroke-linejoin="round" stroke-width="1.333" d="M5.307 10.964A13.978 13.978 0 0 0 2.579 16C4.302 21.784 9.659 26 16 26c1.324 0 2.604-.184 3.817-.527M8.304 8.304A13.936 13.936 0 0 1 16 6c6.341 0 11.697 4.216 13.42 9.997a14.033 14.033 0 0 1-5.724 7.699M8.304 8.304 4 4m4.304 4.304 4.867 4.867m10.525 10.525L28 28m-4.304-4.304-4.867-4.867A3.996 3.996 0 0 0 20 16a4.001 4.001 0 0 0-4-4 4.017 4.017 0 0 0-2.829 1.172m5.657 5.656-5.655-5.655"/></symbol><symbol id="icon-minus-small" viewBox="0 0 32 32"><path d="M7 16a.997.997 0 0 1 1-1h16a.997.997 0 0 1 1 1 .997.997 0 0 1-1 1H8a.997.997 0 0 1-1-1z"/></symbol><symbol id="icon-pencil-square" viewBox="0 0 32 32"><path stroke-linecap="round" stroke-linejoin="round" stroke-width="1.333" d="m22.483 5.983 2.249-2.251a2.5 2.5 0 0 1 3.536 3.536L14.109 21.427a6.002 6.002 0 0 1-2.529 1.507L8 24.001l1.067-3.58a5.992 5.992 0 0 1 1.507-2.529L22.483 5.984zm0 0L26 9.5m-2 9.167V25a3.004 3.004 0 0 1-3 3H7a3.004 3.004 0 0 1-3-3V11a3.004 3.004 0 0 1 3-3h6.333"/></symbol><symbol id="icon-plus-circle" viewBox="0 0 32 32"><path stroke-linecap="round" stroke-linejoin="round" stroke-width="1.333" d="M16 12v8m4-4h-8m16 0a12 12 0 1 1-24.003.002A12 12 0 0 1 28.002 16z"/></symbol><symbol id="icon-plus-small" viewBox="0 0 32 32"><path stroke-linecap="round" stroke-linejoin="round" stroke-width="1.333" d="M16 8v16m8-8H8"/></symbol><symbol id="icon-presentation-chart-bar" viewBox="0 0 32 32"><path fill="none" stroke="#407bff" stroke-linecap="round" stroke-linejoin="round" stroke-width="1.6" d="M5 4v15a3.004 3.004 0 0 0 3 3h3M5 4H3m2 0h22M11 22h10m-10 0-1.333 4M27 4h2m-2 0v15a3.004 3.004 0 0 1-3 3h-3m0 0 1.333 4M9.667 26h12.667M9.667 26 9 28m13.333-2L23 28M12 15v2m4-5v5m4-8v8" style="stroke:var(--color1, #407bff)"/></symbol><symbol id="icon-trash" viewBox="0 0 32 32"><path stroke-linecap="round" stroke-linejoin="round" stroke-width="1.333" d="m19.653 12-.461 12m-6.384 0-.461-12m13.29-4.28c.456.069.909.143 1.363.221m-1.363-.221-1.424 18.511A3 3 0 0 1 21.221 29H10.778a2.996 2.996 0 0 1-2.992-2.769L6.362 7.72m19.275 0A63.917 63.917 0 0 0 21 7.191M6.363 7.72c-.456.068-.909.141-1.363.22m1.363-.22A63.917 63.917 0 0 1 11 7.191m10 0V5.97c0-1.573-1.213-2.885-2.787-2.935a69.515 69.515 0 0 0-4.427 0c-1.573.049-2.787 1.363-2.787 2.935v1.221m10.001 0a64.947 64.947 0 0 0-10 0"/></symbol><symbol id="icon-user" viewBox="0 0 32 32"><path stroke-width="1.333" d="M31.333 16c0 8.468-6.865 15.333-15.333 15.333S.667 24.468.667 16 7.532.667 16 .667 31.333 7.532 31.333 16z"/><path stroke-linecap="round" stroke-linejoin="round" stroke-width="1.333" d="M20.001 9.436c0 1.088-.421 2.132-1.172 2.901S17.061 13.539 16 13.539c-1.061 0-2.079-.432-2.829-1.202s-1.172-1.813-1.172-2.901c0-1.088.421-2.132 1.172-2.901S14.939 5.333 16 5.333c1.061 0 2.079.432 2.829 1.202s1.172 1.813 1.172 2.901zM8 24.881c.034-2.153.892-4.205 2.389-5.715S13.901 16.81 16 16.81c2.099 0 4.115.846 5.611 2.356s2.355 3.562 2.389 5.715a18.732 18.732 0 0 1-8 1.785c-2.855 0-5.564-.639-8-1.785z"/></symbol><symbol id="icon-wrench-screwdriver" viewBox="0 0 32 32"><path fill="none" stroke="#407bff" stroke-linecap="round" stroke-linejoin="round" stroke-width="1.6" d="M15.227 20.227 23 28a3.535 3.535 0 0 0 5.996-2.513 3.535 3.535 0 0 0-.995-2.488l-7.836-7.836m-4.938 5.064 3.328-4.04c.423-.512.987-.835 1.611-1.021.733-.219 1.551-.251 2.324-.187a6.006 6.006 0 0 0 6.486-5.404 6.013 6.013 0 0 0-.504-3.045l-4.368 4.369a4.01 4.01 0 0 1-3-3l4.368-4.368a6.008 6.008 0 0 0-7.912 2.943 6.01 6.01 0 0 0-.536 3.039c.121 1.435-.095 3.019-1.205 3.933l-.136.113m-.456 6.668L9.02 27.764a3.403 3.403 0 0 1-2.46 1.239A3.4 3.4 0 0 1 3 25.442a3.39 3.39 0 0 1 1.239-2.46l9.116-7.507-5.476-5.476H6l-3-5 2-2 5 3v1.879l5.68 5.68-2.327 1.916M24.5 24.5 21 21M6.489 25.5H6.5v.011h-.011V25.5z" style="stroke:var(--color1, #407bff)"/></symbol>
<symbol id="icon-glass" viewBox="0 0 32 32">
<path fill="#407bff" style="fill: var(--color1, #407bff)" d="M5.565 2.783l1.901 26.363v0.072h16.367l1.901-26.353v-0.082h-20.169zM23.161 28.479h-15.017l-1.426-19.747h0.784l1.289 17.403c0.008 0.092 0.049 0.177 0.115 0.24s0.153 0.098 0.244 0.099h0.030c0.047-0.003 0.093-0.016 0.136-0.037s0.080-0.051 0.111-0.087c0.031-0.036 0.055-0.078 0.069-0.124s0.021-0.093 0.017-0.141l-1.289-17.351h16.362l-1.426 19.747zM24.637 7.994h-16.468l-0.283-3.847c-0.009-0.094-0.052-0.181-0.122-0.244s-0.16-0.097-0.252-0.095c-0.095 0.009-0.183 0.055-0.245 0.129s-0.094 0.169-0.088 0.266l0.283 3.795h-0.794l-0.324-4.483h18.617l-0.324 4.478z"></path>
<path fill="#407bff" style="fill: var(--color1, #407bff)" d="M11.36 12.384c0.236 0 0.467-0.071 0.663-0.204s0.349-0.322 0.439-0.543c0.090-0.221 0.114-0.465 0.068-0.699s-0.16-0.45-0.327-0.62c-0.167-0.169-0.38-0.285-0.611-0.331s-0.471-0.023-0.689 0.069c-0.218 0.092-0.404 0.247-0.535 0.446s-0.201 0.433-0.201 0.672c0 0.321 0.126 0.629 0.349 0.856s0.527 0.355 0.844 0.355zM11.36 10.697c0.093 0 0.184 0.028 0.261 0.080s0.138 0.127 0.173 0.214c0.036 0.087 0.045 0.183 0.027 0.276s-0.063 0.178-0.129 0.244c-0.066 0.067-0.149 0.112-0.241 0.13s-0.186 0.009-0.272-0.027c-0.086-0.036-0.159-0.097-0.211-0.176s-0.079-0.171-0.079-0.265c0-0.127 0.050-0.248 0.138-0.337s0.208-0.14 0.333-0.14z"></path>
<path fill="#407bff" style="fill: var(--color1, #407bff)" d="M11.354 16.318c0.003 0.239 0.076 0.472 0.209 0.669s0.321 0.35 0.539 0.439c0.219 0.089 0.458 0.111 0.689 0.062s0.442-0.166 0.607-0.336 0.277-0.387 0.321-0.621c0.044-0.235 0.019-0.477-0.073-0.698s-0.245-0.408-0.442-0.54c-0.197-0.132-0.427-0.201-0.663-0.2-0.158 0.001-0.313 0.033-0.459 0.095s-0.277 0.153-0.387 0.267-0.198 0.249-0.256 0.397c-0.059 0.148-0.088 0.307-0.086 0.467zM13.013 16.318c0 0.094-0.028 0.186-0.079 0.265s-0.125 0.14-0.211 0.176c-0.086 0.036-0.18 0.046-0.272 0.027s-0.175-0.064-0.241-0.131c-0.066-0.067-0.111-0.152-0.129-0.244s-0.009-0.188 0.027-0.276c0.036-0.087 0.096-0.162 0.173-0.214s0.168-0.080 0.261-0.080c0.125 0 0.244 0.050 0.333 0.14s0.138 0.211 0.138 0.337z"></path>
<path fill="#407bff" style="fill: var(--color1, #407bff)" d="M19.834 16.349c0.236 0 0.467-0.071 0.663-0.204s0.349-0.322 0.439-0.543c0.090-0.221 0.114-0.465 0.068-0.699s-0.16-0.45-0.327-0.62c-0.167-0.169-0.38-0.285-0.611-0.331s-0.471-0.023-0.689 0.069c-0.218 0.092-0.404 0.247-0.535 0.446s-0.201 0.433-0.201 0.672c0 0.321 0.126 0.629 0.349 0.856s0.527 0.355 0.844 0.355zM19.834 14.666c0.093 0 0.184 0.028 0.262 0.081s0.138 0.127 0.173 0.215 0.044 0.184 0.026 0.276c-0.018 0.093-0.064 0.178-0.13 0.244s-0.151 0.112-0.242 0.129c-0.092 0.018-0.186 0.008-0.272-0.029s-0.159-0.099-0.21-0.178c-0.051-0.079-0.078-0.172-0.077-0.266 0.001-0.126 0.051-0.246 0.139-0.334s0.207-0.138 0.331-0.138z"></path>
<path fill="#407bff" style="fill: var(--color1, #407bff)" d="M15.678 14.066c0.236 0 0.467-0.071 0.663-0.204s0.349-0.322 0.439-0.543c0.090-0.221 0.114-0.465 0.068-0.699s-0.16-0.45-0.327-0.62c-0.167-0.169-0.379-0.285-0.611-0.331s-0.471-0.023-0.689 0.069c-0.218 0.092-0.404 0.247-0.535 0.446s-0.201 0.433-0.201 0.672c0 0.321 0.126 0.629 0.35 0.856s0.527 0.355 0.844 0.355zM15.678 12.379c0.093 0 0.184 0.028 0.261 0.080s0.138 0.127 0.173 0.214c0.036 0.087 0.045 0.183 0.027 0.276s-0.063 0.178-0.129 0.244c-0.066 0.067-0.15 0.112-0.241 0.13s-0.186 0.009-0.272-0.027c-0.086-0.036-0.159-0.097-0.211-0.176s-0.079-0.171-0.079-0.265c-0.003-0.065 0.006-0.13 0.028-0.19s0.056-0.117 0.1-0.164c0.044-0.047 0.097-0.085 0.156-0.11s0.122-0.039 0.186-0.039v0.026z"></path>
<path fill="#407bff" style="fill: var(--color1, #407bff)" d="M13.402 20.929c0.005 0.197 0.067 0.387 0.178 0.548s0.267 0.285 0.448 0.357 0.378 0.088 0.567 0.047c0.19-0.041 0.363-0.139 0.498-0.279s0.227-0.319 0.263-0.512c0.036-0.193 0.015-0.393-0.060-0.574s-0.202-0.336-0.363-0.445c-0.162-0.109-0.351-0.167-0.545-0.167-0.264 0.007-0.514 0.118-0.699 0.309s-0.287 0.449-0.287 0.716zM14.388 20.662c0.052 0 0.103 0.016 0.146 0.045s0.077 0.071 0.097 0.12c0.020 0.049 0.025 0.102 0.015 0.154s-0.035 0.099-0.072 0.137c-0.037 0.037-0.084 0.063-0.135 0.073s-0.104 0.005-0.152-0.015c-0.048-0.020-0.089-0.054-0.118-0.098s-0.044-0.095-0.044-0.148c0-0.071 0.028-0.139 0.077-0.189s0.116-0.078 0.186-0.078z"></path>
<path fill="#407bff" style="fill: var(--color1, #407bff)" d="M18.17 19.816c0.202 0.007 0.402-0.048 0.574-0.157s0.307-0.269 0.388-0.457c0.081-0.188 0.105-0.397 0.068-0.599s-0.133-0.388-0.276-0.534c-0.142-0.146-0.325-0.245-0.524-0.285s-0.405-0.018-0.591 0.063c-0.186 0.080-0.345 0.216-0.454 0.389s-0.166 0.375-0.161 0.58c0.006 0.261 0.111 0.511 0.292 0.697s0.426 0.294 0.684 0.304zM18.17 18.549c0.070 0 0.137 0.028 0.186 0.078s0.077 0.118 0.077 0.189-0.028 0.139-0.077 0.189c-0.049 0.050-0.116 0.078-0.186 0.078s-0.138-0.028-0.188-0.078-0.079-0.118-0.080-0.189c0-0.035 0.007-0.071 0.021-0.103s0.033-0.062 0.058-0.087c0.025-0.025 0.055-0.044 0.087-0.057s0.067-0.019 0.102-0.019z"></path>
<path fill="#407bff" style="fill: var(--color1, #407bff)" d="M20.253 11.538c0.2 0 0.395-0.060 0.562-0.173s0.296-0.273 0.372-0.46c0.077-0.187 0.097-0.394 0.058-0.593s-0.135-0.382-0.277-0.525-0.322-0.241-0.518-0.281c-0.196-0.040-0.399-0.019-0.584 0.058s-0.343 0.209-0.454 0.378c-0.111 0.169-0.17 0.367-0.17 0.57 0 0.272 0.107 0.533 0.296 0.725s0.447 0.3 0.715 0.3zM20.253 10.271c0.039-0.011 0.080-0.013 0.12-0.006s0.078 0.024 0.11 0.049c0.032 0.025 0.059 0.057 0.077 0.094s0.028 0.078 0.028 0.119c0 0.041-0.009 0.082-0.028 0.119s-0.045 0.069-0.077 0.094c-0.033 0.025-0.070 0.042-0.11 0.049s-0.081 0.006-0.12-0.006c-0.039 0.011-0.080 0.013-0.12 0.006s-0.078-0.024-0.11-0.049c-0.032-0.025-0.059-0.057-0.077-0.094s-0.028-0.078-0.028-0.119c0-0.041 0.009-0.082 0.028-0.119s0.045-0.069 0.077-0.094c0.033-0.025 0.070-0.042 0.11-0.049s0.081-0.006 0.12 0.006z"></path>
<path fill="#407bff" style="fill: var(--color1, #407bff)" d="M10.369 27.191c-0.045 0.021-0.086 0.052-0.119 0.089s-0.059 0.082-0.074 0.13-0.021 0.099-0.017 0.149c0.005 0.050 0.019 0.099 0.043 0.144 0.031 0.060 0.078 0.11 0.135 0.145s0.122 0.054 0.189 0.055c0.056 0.002 0.112-0.011 0.162-0.036 1.545-0.803 3.255-1.225 4.99-1.231 1.837 0.027 3.648 0.441 5.319 1.216 0.066 0.035 0.141 0.049 0.215 0.039s0.143-0.042 0.198-0.093c0.055-0.051 0.094-0.118 0.11-0.192s0.010-0.151-0.018-0.221c-0.036-0.091-0.104-0.164-0.192-0.205-1.769-0.821-3.687-1.258-5.633-1.282-1.845 0.002-3.664 0.444-5.309 1.293z"></path>
</symbol></defs></svg>
